<mxfile host="app.diagrams.net" modified="2021-07-28T22:19:07.309Z" agent="5.0 (Macintosh; Intel Mac OS X 10_15_7) AppleWebKit/605.1.15 (KHTML, like Gecko) Version/15.0 Safari/605.1.15" etag="g2wnZpOJkMuvVIWVlV4N" version="14.9.3" type="github">
  <diagram id="wras9Tf5jnyA-WpW97Eg" name="Page-1">
    <mxGraphModel dx="946" dy="673" grid="1" gridSize="10" guides="1" tooltips="1" connect="1" arrows="1" fold="1" page="1" pageScale="1" pageWidth="827" pageHeight="1169" math="0" shadow="0">
      <root>
        <mxCell id="0" />
        <mxCell id="1" parent="0" />
        <mxCell id="p-PvGO35hbSLgH3q7m_m-1" style="edgeStyle=orthogonalEdgeStyle;rounded=0;orthogonalLoop=1;jettySize=auto;html=1;exitX=0.5;exitY=1;exitDx=0;exitDy=0;entryX=0.5;entryY=0;entryDx=0;entryDy=0;startArrow=ERone;startFill=0;endArrow=ERmany;endFill=0;" edge="1" parent="1" source="p-PvGO35hbSLgH3q7m_m-2" target="p-PvGO35hbSLgH3q7m_m-18">
          <mxGeometry relative="1" as="geometry" />
        </mxCell>
        <mxCell id="p-PvGO35hbSLgH3q7m_m-2" value="Corretora" style="shape=table;startSize=30;container=1;collapsible=1;childLayout=tableLayout;fixedRows=1;rowLines=0;fontStyle=1;align=center;resizeLast=1;" vertex="1" parent="1">
          <mxGeometry x="80" y="40" width="180" height="100" as="geometry" />
        </mxCell>
        <mxCell id="p-PvGO35hbSLgH3q7m_m-3" value="" style="shape=partialRectangle;collapsible=0;dropTarget=0;pointerEvents=0;fillColor=none;top=0;left=0;bottom=1;right=0;points=[[0,0.5],[1,0.5]];portConstraint=eastwest;" vertex="1" parent="p-PvGO35hbSLgH3q7m_m-2">
          <mxGeometry y="30" width="180" height="30" as="geometry" />
        </mxCell>
        <mxCell id="p-PvGO35hbSLgH3q7m_m-4" value="PK" style="shape=partialRectangle;connectable=0;fillColor=none;top=0;left=0;bottom=0;right=0;fontStyle=1;overflow=hidden;" vertex="1" parent="p-PvGO35hbSLgH3q7m_m-3">
          <mxGeometry width="30" height="30" as="geometry" />
        </mxCell>
        <mxCell id="p-PvGO35hbSLgH3q7m_m-5" value="ID" style="shape=partialRectangle;connectable=0;fillColor=none;top=0;left=0;bottom=0;right=0;align=left;spacingLeft=6;fontStyle=5;overflow=hidden;" vertex="1" parent="p-PvGO35hbSLgH3q7m_m-3">
          <mxGeometry x="30" width="150" height="30" as="geometry" />
        </mxCell>
        <mxCell id="p-PvGO35hbSLgH3q7m_m-6" value="" style="shape=partialRectangle;collapsible=0;dropTarget=0;pointerEvents=0;fillColor=none;top=0;left=0;bottom=0;right=0;points=[[0,0.5],[1,0.5]];portConstraint=eastwest;" vertex="1" parent="p-PvGO35hbSLgH3q7m_m-2">
          <mxGeometry y="60" width="180" height="30" as="geometry" />
        </mxCell>
        <mxCell id="p-PvGO35hbSLgH3q7m_m-7" value="STR" style="shape=partialRectangle;connectable=0;fillColor=none;top=0;left=0;bottom=0;right=0;editable=1;overflow=hidden;" vertex="1" parent="p-PvGO35hbSLgH3q7m_m-6">
          <mxGeometry width="30" height="30" as="geometry" />
        </mxCell>
        <mxCell id="p-PvGO35hbSLgH3q7m_m-8" value="Nome" style="shape=partialRectangle;connectable=0;fillColor=none;top=0;left=0;bottom=0;right=0;align=left;spacingLeft=6;overflow=hidden;" vertex="1" parent="p-PvGO35hbSLgH3q7m_m-6">
          <mxGeometry x="30" width="150" height="30" as="geometry" />
        </mxCell>
        <mxCell id="p-PvGO35hbSLgH3q7m_m-9" style="edgeStyle=orthogonalEdgeStyle;rounded=0;orthogonalLoop=1;jettySize=auto;html=1;exitX=0.5;exitY=0;exitDx=0;exitDy=0;entryX=0.5;entryY=0;entryDx=0;entryDy=0;startArrow=ERone;startFill=0;endArrow=ERmany;endFill=0;" edge="1" parent="1" source="p-PvGO35hbSLgH3q7m_m-10" target="p-PvGO35hbSLgH3q7m_m-36">
          <mxGeometry relative="1" as="geometry" />
        </mxCell>
        <mxCell id="p-PvGO35hbSLgH3q7m_m-10" value="Tipo de Investimento " style="shape=table;startSize=30;container=1;collapsible=1;childLayout=tableLayout;fixedRows=1;rowLines=0;fontStyle=1;align=center;resizeLast=1;" vertex="1" parent="1">
          <mxGeometry x="320" y="40" width="180" height="100" as="geometry" />
        </mxCell>
        <mxCell id="p-PvGO35hbSLgH3q7m_m-11" value="" style="shape=partialRectangle;collapsible=0;dropTarget=0;pointerEvents=0;fillColor=none;top=0;left=0;bottom=1;right=0;points=[[0,0.5],[1,0.5]];portConstraint=eastwest;" vertex="1" parent="p-PvGO35hbSLgH3q7m_m-10">
          <mxGeometry y="30" width="180" height="30" as="geometry" />
        </mxCell>
        <mxCell id="p-PvGO35hbSLgH3q7m_m-12" value="PK" style="shape=partialRectangle;connectable=0;fillColor=none;top=0;left=0;bottom=0;right=0;fontStyle=1;overflow=hidden;" vertex="1" parent="p-PvGO35hbSLgH3q7m_m-11">
          <mxGeometry width="30" height="30" as="geometry" />
        </mxCell>
        <mxCell id="p-PvGO35hbSLgH3q7m_m-13" value="ID" style="shape=partialRectangle;connectable=0;fillColor=none;top=0;left=0;bottom=0;right=0;align=left;spacingLeft=6;fontStyle=5;overflow=hidden;" vertex="1" parent="p-PvGO35hbSLgH3q7m_m-11">
          <mxGeometry x="30" width="150" height="30" as="geometry" />
        </mxCell>
        <mxCell id="p-PvGO35hbSLgH3q7m_m-14" value="" style="shape=partialRectangle;collapsible=0;dropTarget=0;pointerEvents=0;fillColor=none;top=0;left=0;bottom=0;right=0;points=[[0,0.5],[1,0.5]];portConstraint=eastwest;" vertex="1" parent="p-PvGO35hbSLgH3q7m_m-10">
          <mxGeometry y="60" width="180" height="30" as="geometry" />
        </mxCell>
        <mxCell id="p-PvGO35hbSLgH3q7m_m-15" value="STR" style="shape=partialRectangle;connectable=0;fillColor=none;top=0;left=0;bottom=0;right=0;editable=1;overflow=hidden;" vertex="1" parent="p-PvGO35hbSLgH3q7m_m-14">
          <mxGeometry width="30" height="30" as="geometry" />
        </mxCell>
        <mxCell id="p-PvGO35hbSLgH3q7m_m-16" value="TipoInvestimento" style="shape=partialRectangle;connectable=0;fillColor=none;top=0;left=0;bottom=0;right=0;align=left;spacingLeft=6;overflow=hidden;" vertex="1" parent="p-PvGO35hbSLgH3q7m_m-14">
          <mxGeometry x="30" width="150" height="30" as="geometry" />
        </mxCell>
        <mxCell id="p-PvGO35hbSLgH3q7m_m-17" style="edgeStyle=orthogonalEdgeStyle;rounded=0;orthogonalLoop=1;jettySize=auto;html=1;exitX=0.5;exitY=1;exitDx=0;exitDy=0;startArrow=ERone;startFill=0;endArrow=ERmany;endFill=0;entryX=0.75;entryY=0;entryDx=0;entryDy=0;" edge="1" parent="1" source="p-PvGO35hbSLgH3q7m_m-18" target="p-PvGO35hbSLgH3q7m_m-52">
          <mxGeometry relative="1" as="geometry">
            <mxPoint x="420" y="550" as="targetPoint" />
          </mxGeometry>
        </mxCell>
        <mxCell id="p-PvGO35hbSLgH3q7m_m-18" value="Operações" style="shape=table;startSize=30;container=1;collapsible=1;childLayout=tableLayout;fixedRows=1;rowLines=0;fontStyle=1;align=center;resizeLast=1;" vertex="1" parent="1">
          <mxGeometry x="320" y="280" width="181" height="190" as="geometry" />
        </mxCell>
        <mxCell id="p-PvGO35hbSLgH3q7m_m-19" value="" style="shape=partialRectangle;collapsible=0;dropTarget=0;pointerEvents=0;fillColor=none;top=0;left=0;bottom=0;right=0;points=[[0,0.5],[1,0.5]];portConstraint=eastwest;" vertex="1" parent="p-PvGO35hbSLgH3q7m_m-18">
          <mxGeometry y="30" width="181" height="30" as="geometry" />
        </mxCell>
        <mxCell id="p-PvGO35hbSLgH3q7m_m-20" value="PK" style="shape=partialRectangle;connectable=0;fillColor=none;top=0;left=0;bottom=0;right=0;fontStyle=1;overflow=hidden;" vertex="1" parent="p-PvGO35hbSLgH3q7m_m-19">
          <mxGeometry width="60" height="30" as="geometry" />
        </mxCell>
        <mxCell id="p-PvGO35hbSLgH3q7m_m-21" value="ID" style="shape=partialRectangle;connectable=0;fillColor=none;top=0;left=0;bottom=0;right=0;align=left;spacingLeft=6;fontStyle=5;overflow=hidden;" vertex="1" parent="p-PvGO35hbSLgH3q7m_m-19">
          <mxGeometry x="60" width="121" height="30" as="geometry" />
        </mxCell>
        <mxCell id="p-PvGO35hbSLgH3q7m_m-22" value="" style="shape=partialRectangle;collapsible=0;dropTarget=0;pointerEvents=0;fillColor=none;top=0;left=0;bottom=0;right=0;points=[[0,0.5],[1,0.5]];portConstraint=eastwest;" vertex="1" parent="p-PvGO35hbSLgH3q7m_m-18">
          <mxGeometry y="60" width="181" height="30" as="geometry" />
        </mxCell>
        <mxCell id="p-PvGO35hbSLgH3q7m_m-23" value="FK1" style="shape=partialRectangle;connectable=0;fillColor=none;top=0;left=0;bottom=0;right=0;fontStyle=1;overflow=hidden;" vertex="1" parent="p-PvGO35hbSLgH3q7m_m-22">
          <mxGeometry width="60" height="30" as="geometry" />
        </mxCell>
        <mxCell id="p-PvGO35hbSLgH3q7m_m-24" value="ID_Corretora" style="shape=partialRectangle;connectable=0;fillColor=none;top=0;left=0;bottom=0;right=0;align=left;spacingLeft=6;fontStyle=1;overflow=hidden;" vertex="1" parent="p-PvGO35hbSLgH3q7m_m-22">
          <mxGeometry x="60" width="121" height="30" as="geometry" />
        </mxCell>
        <mxCell id="p-PvGO35hbSLgH3q7m_m-25" value="" style="shape=partialRectangle;collapsible=0;dropTarget=0;pointerEvents=0;fillColor=none;top=0;left=0;bottom=1;right=0;points=[[0,0.5],[1,0.5]];portConstraint=eastwest;" vertex="1" parent="p-PvGO35hbSLgH3q7m_m-18">
          <mxGeometry y="90" width="181" height="30" as="geometry" />
        </mxCell>
        <mxCell id="p-PvGO35hbSLgH3q7m_m-26" value="FK2" style="shape=partialRectangle;connectable=0;fillColor=none;top=0;left=0;bottom=0;right=0;fontStyle=1;overflow=hidden;" vertex="1" parent="p-PvGO35hbSLgH3q7m_m-25">
          <mxGeometry width="60" height="30" as="geometry" />
        </mxCell>
        <mxCell id="p-PvGO35hbSLgH3q7m_m-27" value="ID_Ativo" style="shape=partialRectangle;connectable=0;fillColor=none;top=0;left=0;bottom=0;right=0;align=left;spacingLeft=6;fontStyle=1;overflow=hidden;" vertex="1" parent="p-PvGO35hbSLgH3q7m_m-25">
          <mxGeometry x="60" width="121" height="30" as="geometry" />
        </mxCell>
        <mxCell id="p-PvGO35hbSLgH3q7m_m-28" value="" style="shape=partialRectangle;collapsible=0;dropTarget=0;pointerEvents=0;fillColor=none;top=0;left=0;bottom=0;right=0;points=[[0,0.5],[1,0.5]];portConstraint=eastwest;" vertex="1" parent="p-PvGO35hbSLgH3q7m_m-18">
          <mxGeometry y="120" width="181" height="30" as="geometry" />
        </mxCell>
        <mxCell id="p-PvGO35hbSLgH3q7m_m-29" value="INT" style="shape=partialRectangle;connectable=0;fillColor=none;top=0;left=0;bottom=0;right=0;editable=1;overflow=hidden;" vertex="1" parent="p-PvGO35hbSLgH3q7m_m-28">
          <mxGeometry width="60" height="30" as="geometry" />
        </mxCell>
        <mxCell id="p-PvGO35hbSLgH3q7m_m-30" value="QntdSaldo" style="shape=partialRectangle;connectable=0;fillColor=none;top=0;left=0;bottom=0;right=0;align=left;spacingLeft=6;overflow=hidden;" vertex="1" parent="p-PvGO35hbSLgH3q7m_m-28">
          <mxGeometry x="60" width="121" height="30" as="geometry" />
        </mxCell>
        <mxCell id="p-PvGO35hbSLgH3q7m_m-31" value="" style="shape=partialRectangle;collapsible=0;dropTarget=0;pointerEvents=0;fillColor=none;top=0;left=0;bottom=0;right=0;points=[[0,0.5],[1,0.5]];portConstraint=eastwest;" vertex="1" parent="p-PvGO35hbSLgH3q7m_m-18">
          <mxGeometry y="150" width="181" height="30" as="geometry" />
        </mxCell>
        <mxCell id="p-PvGO35hbSLgH3q7m_m-32" value="Bool" style="shape=partialRectangle;connectable=0;fillColor=none;top=0;left=0;bottom=0;right=0;editable=1;overflow=hidden;" vertex="1" parent="p-PvGO35hbSLgH3q7m_m-31">
          <mxGeometry width="60" height="30" as="geometry" />
        </mxCell>
        <mxCell id="p-PvGO35hbSLgH3q7m_m-33" value="Status" style="shape=partialRectangle;connectable=0;fillColor=none;top=0;left=0;bottom=0;right=0;align=left;spacingLeft=6;overflow=hidden;" vertex="1" parent="p-PvGO35hbSLgH3q7m_m-31">
          <mxGeometry x="60" width="121" height="30" as="geometry" />
        </mxCell>
        <mxCell id="p-PvGO35hbSLgH3q7m_m-34" style="edgeStyle=orthogonalEdgeStyle;rounded=0;orthogonalLoop=1;jettySize=auto;html=1;exitX=0.25;exitY=1;exitDx=0;exitDy=0;entryX=0.75;entryY=0;entryDx=0;entryDy=0;startArrow=ERone;startFill=0;endArrow=ERmany;endFill=0;" edge="1" parent="1" source="p-PvGO35hbSLgH3q7m_m-36" target="p-PvGO35hbSLgH3q7m_m-18">
          <mxGeometry relative="1" as="geometry" />
        </mxCell>
        <mxCell id="p-PvGO35hbSLgH3q7m_m-35" value="" style="edgeStyle=orthogonalEdgeStyle;rounded=0;orthogonalLoop=1;jettySize=auto;html=1;startArrow=ERone;startFill=0;endArrow=ERmany;endFill=0;exitX=0.75;exitY=1;exitDx=0;exitDy=0;" edge="1" parent="1" source="p-PvGO35hbSLgH3q7m_m-36" target="p-PvGO35hbSLgH3q7m_m-83">
          <mxGeometry relative="1" as="geometry" />
        </mxCell>
        <mxCell id="p-PvGO35hbSLgH3q7m_m-36" value="Ativos" style="shape=table;startSize=30;container=1;collapsible=1;childLayout=tableLayout;fixedRows=1;rowLines=0;fontStyle=1;align=center;resizeLast=1;" vertex="1" parent="1">
          <mxGeometry x="560" y="40" width="200" height="190" as="geometry" />
        </mxCell>
        <mxCell id="p-PvGO35hbSLgH3q7m_m-37" value="" style="shape=partialRectangle;collapsible=0;dropTarget=0;pointerEvents=0;fillColor=none;top=0;left=0;bottom=0;right=0;points=[[0,0.5],[1,0.5]];portConstraint=eastwest;" vertex="1" parent="p-PvGO35hbSLgH3q7m_m-36">
          <mxGeometry y="30" width="200" height="30" as="geometry" />
        </mxCell>
        <mxCell id="p-PvGO35hbSLgH3q7m_m-38" value="PK" style="shape=partialRectangle;connectable=0;fillColor=none;top=0;left=0;bottom=0;right=0;fontStyle=1;overflow=hidden;" vertex="1" parent="p-PvGO35hbSLgH3q7m_m-37">
          <mxGeometry width="60" height="30" as="geometry" />
        </mxCell>
        <mxCell id="p-PvGO35hbSLgH3q7m_m-39" value="ID" style="shape=partialRectangle;connectable=0;fillColor=none;top=0;left=0;bottom=0;right=0;align=left;spacingLeft=6;fontStyle=5;overflow=hidden;" vertex="1" parent="p-PvGO35hbSLgH3q7m_m-37">
          <mxGeometry x="60" width="140" height="30" as="geometry" />
        </mxCell>
        <mxCell id="p-PvGO35hbSLgH3q7m_m-40" value="" style="shape=partialRectangle;collapsible=0;dropTarget=0;pointerEvents=0;fillColor=none;top=0;left=0;bottom=0;right=0;points=[[0,0.5],[1,0.5]];portConstraint=eastwest;" vertex="1" parent="p-PvGO35hbSLgH3q7m_m-36">
          <mxGeometry y="60" width="200" height="30" as="geometry" />
        </mxCell>
        <mxCell id="p-PvGO35hbSLgH3q7m_m-41" value="FK1" style="shape=partialRectangle;connectable=0;fillColor=none;top=0;left=0;bottom=0;right=0;fontStyle=1;overflow=hidden;" vertex="1" parent="p-PvGO35hbSLgH3q7m_m-40">
          <mxGeometry width="60" height="30" as="geometry" />
        </mxCell>
        <mxCell id="p-PvGO35hbSLgH3q7m_m-42" value="ID_Segmento" style="shape=partialRectangle;connectable=0;fillColor=none;top=0;left=0;bottom=0;right=0;align=left;spacingLeft=6;fontStyle=1;overflow=hidden;" vertex="1" parent="p-PvGO35hbSLgH3q7m_m-40">
          <mxGeometry x="60" width="140" height="30" as="geometry" />
        </mxCell>
        <mxCell id="p-PvGO35hbSLgH3q7m_m-43" value="" style="shape=partialRectangle;collapsible=0;dropTarget=0;pointerEvents=0;fillColor=none;top=0;left=0;bottom=1;right=0;points=[[0,0.5],[1,0.5]];portConstraint=eastwest;" vertex="1" parent="p-PvGO35hbSLgH3q7m_m-36">
          <mxGeometry y="90" width="200" height="30" as="geometry" />
        </mxCell>
        <mxCell id="p-PvGO35hbSLgH3q7m_m-44" value="FK2" style="shape=partialRectangle;connectable=0;fillColor=none;top=0;left=0;bottom=0;right=0;fontStyle=1;overflow=hidden;" vertex="1" parent="p-PvGO35hbSLgH3q7m_m-43">
          <mxGeometry width="60" height="30" as="geometry" />
        </mxCell>
        <mxCell id="p-PvGO35hbSLgH3q7m_m-45" value="ID_TipoInvestimento" style="shape=partialRectangle;connectable=0;fillColor=none;top=0;left=0;bottom=0;right=0;align=left;spacingLeft=6;fontStyle=1;overflow=hidden;" vertex="1" parent="p-PvGO35hbSLgH3q7m_m-43">
          <mxGeometry x="60" width="140" height="30" as="geometry" />
        </mxCell>
        <mxCell id="p-PvGO35hbSLgH3q7m_m-46" value="" style="shape=partialRectangle;collapsible=0;dropTarget=0;pointerEvents=0;fillColor=none;top=0;left=0;bottom=0;right=0;points=[[0,0.5],[1,0.5]];portConstraint=eastwest;" vertex="1" parent="p-PvGO35hbSLgH3q7m_m-36">
          <mxGeometry y="120" width="200" height="30" as="geometry" />
        </mxCell>
        <mxCell id="p-PvGO35hbSLgH3q7m_m-47" value="STR" style="shape=partialRectangle;connectable=0;fillColor=none;top=0;left=0;bottom=0;right=0;editable=1;overflow=hidden;" vertex="1" parent="p-PvGO35hbSLgH3q7m_m-46">
          <mxGeometry width="60" height="30" as="geometry" />
        </mxCell>
        <mxCell id="p-PvGO35hbSLgH3q7m_m-48" value="Tickers" style="shape=partialRectangle;connectable=0;fillColor=none;top=0;left=0;bottom=0;right=0;align=left;spacingLeft=6;overflow=hidden;" vertex="1" parent="p-PvGO35hbSLgH3q7m_m-46">
          <mxGeometry x="60" width="140" height="30" as="geometry" />
        </mxCell>
        <mxCell id="p-PvGO35hbSLgH3q7m_m-49" value="" style="shape=partialRectangle;collapsible=0;dropTarget=0;pointerEvents=0;fillColor=none;top=0;left=0;bottom=0;right=0;points=[[0,0.5],[1,0.5]];portConstraint=eastwest;" vertex="1" parent="p-PvGO35hbSLgH3q7m_m-36">
          <mxGeometry y="150" width="200" height="30" as="geometry" />
        </mxCell>
        <mxCell id="p-PvGO35hbSLgH3q7m_m-50" value="STR " style="shape=partialRectangle;connectable=0;fillColor=none;top=0;left=0;bottom=0;right=0;editable=1;overflow=hidden;" vertex="1" parent="p-PvGO35hbSLgH3q7m_m-49">
          <mxGeometry width="60" height="30" as="geometry" />
        </mxCell>
        <mxCell id="p-PvGO35hbSLgH3q7m_m-51" value="NomeAtivo" style="shape=partialRectangle;connectable=0;fillColor=none;top=0;left=0;bottom=0;right=0;align=left;spacingLeft=6;overflow=hidden;" vertex="1" parent="p-PvGO35hbSLgH3q7m_m-49">
          <mxGeometry x="60" width="140" height="30" as="geometry" />
        </mxCell>
        <mxCell id="p-PvGO35hbSLgH3q7m_m-52" value="Extrato Operações" style="shape=table;startSize=30;container=1;collapsible=1;childLayout=tableLayout;fixedRows=1;rowLines=0;fontStyle=1;align=center;resizeLast=1;" vertex="1" parent="1">
          <mxGeometry x="320" y="560" width="180" height="250" as="geometry" />
        </mxCell>
        <mxCell id="p-PvGO35hbSLgH3q7m_m-53" value="" style="shape=partialRectangle;collapsible=0;dropTarget=0;pointerEvents=0;fillColor=none;top=0;left=0;bottom=0;right=0;points=[[0,0.5],[1,0.5]];portConstraint=eastwest;" vertex="1" parent="p-PvGO35hbSLgH3q7m_m-52">
          <mxGeometry y="30" width="180" height="30" as="geometry" />
        </mxCell>
        <mxCell id="p-PvGO35hbSLgH3q7m_m-54" value="PK" style="shape=partialRectangle;connectable=0;fillColor=none;top=0;left=0;bottom=0;right=0;fontStyle=1;overflow=hidden;" vertex="1" parent="p-PvGO35hbSLgH3q7m_m-53">
          <mxGeometry width="60" height="30" as="geometry" />
        </mxCell>
        <mxCell id="p-PvGO35hbSLgH3q7m_m-55" value="ID" style="shape=partialRectangle;connectable=0;fillColor=none;top=0;left=0;bottom=0;right=0;align=left;spacingLeft=6;fontStyle=5;overflow=hidden;" vertex="1" parent="p-PvGO35hbSLgH3q7m_m-53">
          <mxGeometry x="60" width="120" height="30" as="geometry" />
        </mxCell>
        <mxCell id="p-PvGO35hbSLgH3q7m_m-56" value="" style="shape=partialRectangle;collapsible=0;dropTarget=0;pointerEvents=0;fillColor=none;top=0;left=0;bottom=0;right=0;points=[[0,0.5],[1,0.5]];portConstraint=eastwest;" vertex="1" parent="p-PvGO35hbSLgH3q7m_m-52">
          <mxGeometry y="60" width="180" height="30" as="geometry" />
        </mxCell>
        <mxCell id="p-PvGO35hbSLgH3q7m_m-57" value="FK1" style="shape=partialRectangle;connectable=0;fillColor=none;top=0;left=0;bottom=0;right=0;fontStyle=1;overflow=hidden;" vertex="1" parent="p-PvGO35hbSLgH3q7m_m-56">
          <mxGeometry width="60" height="30" as="geometry" />
        </mxCell>
        <mxCell id="p-PvGO35hbSLgH3q7m_m-58" value="ID_Tipo" style="shape=partialRectangle;connectable=0;fillColor=none;top=0;left=0;bottom=0;right=0;align=left;spacingLeft=6;fontStyle=1;overflow=hidden;" vertex="1" parent="p-PvGO35hbSLgH3q7m_m-56">
          <mxGeometry x="60" width="120" height="30" as="geometry" />
        </mxCell>
        <mxCell id="p-PvGO35hbSLgH3q7m_m-59" value="" style="shape=partialRectangle;collapsible=0;dropTarget=0;pointerEvents=0;fillColor=none;top=0;left=0;bottom=1;right=0;points=[[0,0.5],[1,0.5]];portConstraint=eastwest;" vertex="1" parent="p-PvGO35hbSLgH3q7m_m-52">
          <mxGeometry y="90" width="180" height="30" as="geometry" />
        </mxCell>
        <mxCell id="p-PvGO35hbSLgH3q7m_m-60" value="FK" style="shape=partialRectangle;connectable=0;fillColor=none;top=0;left=0;bottom=0;right=0;fontStyle=1;overflow=hidden;" vertex="1" parent="p-PvGO35hbSLgH3q7m_m-59">
          <mxGeometry width="60" height="30" as="geometry" />
        </mxCell>
        <mxCell id="p-PvGO35hbSLgH3q7m_m-61" value="ID_Operacoes" style="shape=partialRectangle;connectable=0;fillColor=none;top=0;left=0;bottom=0;right=0;align=left;spacingLeft=6;fontStyle=1;overflow=hidden;" vertex="1" parent="p-PvGO35hbSLgH3q7m_m-59">
          <mxGeometry x="60" width="120" height="30" as="geometry" />
        </mxCell>
        <mxCell id="p-PvGO35hbSLgH3q7m_m-62" value="" style="shape=partialRectangle;collapsible=0;dropTarget=0;pointerEvents=0;fillColor=none;top=0;left=0;bottom=0;right=0;points=[[0,0.5],[1,0.5]];portConstraint=eastwest;" vertex="1" parent="p-PvGO35hbSLgH3q7m_m-52">
          <mxGeometry y="120" width="180" height="30" as="geometry" />
        </mxCell>
        <mxCell id="p-PvGO35hbSLgH3q7m_m-63" value="DATE    " style="shape=partialRectangle;connectable=0;fillColor=none;top=0;left=0;bottom=0;right=0;editable=1;overflow=hidden;" vertex="1" parent="p-PvGO35hbSLgH3q7m_m-62">
          <mxGeometry width="60" height="30" as="geometry" />
        </mxCell>
        <mxCell id="p-PvGO35hbSLgH3q7m_m-64" value="Data" style="shape=partialRectangle;connectable=0;fillColor=none;top=0;left=0;bottom=0;right=0;align=left;spacingLeft=6;overflow=hidden;" vertex="1" parent="p-PvGO35hbSLgH3q7m_m-62">
          <mxGeometry x="60" width="120" height="30" as="geometry" />
        </mxCell>
        <mxCell id="p-PvGO35hbSLgH3q7m_m-65" value="" style="shape=partialRectangle;collapsible=0;dropTarget=0;pointerEvents=0;fillColor=none;top=0;left=0;bottom=0;right=0;points=[[0,0.5],[1,0.5]];portConstraint=eastwest;" vertex="1" parent="p-PvGO35hbSLgH3q7m_m-52">
          <mxGeometry y="150" width="180" height="30" as="geometry" />
        </mxCell>
        <mxCell id="p-PvGO35hbSLgH3q7m_m-66" value="INT" style="shape=partialRectangle;connectable=0;fillColor=none;top=0;left=0;bottom=0;right=0;editable=1;overflow=hidden;" vertex="1" parent="p-PvGO35hbSLgH3q7m_m-65">
          <mxGeometry width="60" height="30" as="geometry" />
        </mxCell>
        <mxCell id="p-PvGO35hbSLgH3q7m_m-67" value="Quantidade" style="shape=partialRectangle;connectable=0;fillColor=none;top=0;left=0;bottom=0;right=0;align=left;spacingLeft=6;overflow=hidden;" vertex="1" parent="p-PvGO35hbSLgH3q7m_m-65">
          <mxGeometry x="60" width="120" height="30" as="geometry" />
        </mxCell>
        <mxCell id="p-PvGO35hbSLgH3q7m_m-68" value="" style="shape=partialRectangle;collapsible=0;dropTarget=0;pointerEvents=0;fillColor=none;top=0;left=0;bottom=0;right=0;points=[[0,0.5],[1,0.5]];portConstraint=eastwest;" vertex="1" parent="p-PvGO35hbSLgH3q7m_m-52">
          <mxGeometry y="180" width="180" height="30" as="geometry" />
        </mxCell>
        <mxCell id="p-PvGO35hbSLgH3q7m_m-69" value="FLOT" style="shape=partialRectangle;connectable=0;fillColor=none;top=0;left=0;bottom=0;right=0;editable=1;overflow=hidden;" vertex="1" parent="p-PvGO35hbSLgH3q7m_m-68">
          <mxGeometry width="60" height="30" as="geometry" />
        </mxCell>
        <mxCell id="p-PvGO35hbSLgH3q7m_m-70" value="ValorUnitário" style="shape=partialRectangle;connectable=0;fillColor=none;top=0;left=0;bottom=0;right=0;align=left;spacingLeft=6;overflow=hidden;" vertex="1" parent="p-PvGO35hbSLgH3q7m_m-68">
          <mxGeometry x="60" width="120" height="30" as="geometry" />
        </mxCell>
        <mxCell id="p-PvGO35hbSLgH3q7m_m-71" value="" style="shape=partialRectangle;collapsible=0;dropTarget=0;pointerEvents=0;fillColor=none;top=0;left=0;bottom=0;right=0;points=[[0,0.5],[1,0.5]];portConstraint=eastwest;" vertex="1" parent="p-PvGO35hbSLgH3q7m_m-52">
          <mxGeometry y="210" width="180" height="30" as="geometry" />
        </mxCell>
        <mxCell id="p-PvGO35hbSLgH3q7m_m-72" value="FLOT" style="shape=partialRectangle;connectable=0;fillColor=none;top=0;left=0;bottom=0;right=0;editable=1;overflow=hidden;" vertex="1" parent="p-PvGO35hbSLgH3q7m_m-71">
          <mxGeometry width="60" height="30" as="geometry" />
        </mxCell>
        <mxCell id="p-PvGO35hbSLgH3q7m_m-73" value="ValorTotal" style="shape=partialRectangle;connectable=0;fillColor=none;top=0;left=0;bottom=0;right=0;align=left;spacingLeft=6;overflow=hidden;" vertex="1" parent="p-PvGO35hbSLgH3q7m_m-71">
          <mxGeometry x="60" width="120" height="30" as="geometry" />
        </mxCell>
        <mxCell id="p-PvGO35hbSLgH3q7m_m-74" style="edgeStyle=orthogonalEdgeStyle;rounded=0;orthogonalLoop=1;jettySize=auto;html=1;exitX=0.5;exitY=1;exitDx=0;exitDy=0;startArrow=ERone;startFill=0;endArrow=ERmany;endFill=0;entryX=0.25;entryY=0;entryDx=0;entryDy=0;" edge="1" parent="1" source="p-PvGO35hbSLgH3q7m_m-75" target="p-PvGO35hbSLgH3q7m_m-52">
          <mxGeometry relative="1" as="geometry">
            <mxPoint x="270" y="550" as="targetPoint" />
          </mxGeometry>
        </mxCell>
        <mxCell id="p-PvGO35hbSLgH3q7m_m-75" value="Tipos de Operação" style="shape=table;startSize=30;container=1;collapsible=1;childLayout=tableLayout;fixedRows=1;rowLines=0;fontStyle=1;align=center;resizeLast=1;" vertex="1" parent="1">
          <mxGeometry x="80" y="370" width="180" height="100" as="geometry" />
        </mxCell>
        <mxCell id="p-PvGO35hbSLgH3q7m_m-76" value="" style="shape=partialRectangle;collapsible=0;dropTarget=0;pointerEvents=0;fillColor=none;top=0;left=0;bottom=1;right=0;points=[[0,0.5],[1,0.5]];portConstraint=eastwest;" vertex="1" parent="p-PvGO35hbSLgH3q7m_m-75">
          <mxGeometry y="30" width="180" height="30" as="geometry" />
        </mxCell>
        <mxCell id="p-PvGO35hbSLgH3q7m_m-77" value="PK" style="shape=partialRectangle;connectable=0;fillColor=none;top=0;left=0;bottom=0;right=0;fontStyle=1;overflow=hidden;" vertex="1" parent="p-PvGO35hbSLgH3q7m_m-76">
          <mxGeometry width="30" height="30" as="geometry" />
        </mxCell>
        <mxCell id="p-PvGO35hbSLgH3q7m_m-78" value="ID" style="shape=partialRectangle;connectable=0;fillColor=none;top=0;left=0;bottom=0;right=0;align=left;spacingLeft=6;fontStyle=5;overflow=hidden;" vertex="1" parent="p-PvGO35hbSLgH3q7m_m-76">
          <mxGeometry x="30" width="150" height="30" as="geometry" />
        </mxCell>
        <mxCell id="p-PvGO35hbSLgH3q7m_m-79" value="" style="shape=partialRectangle;collapsible=0;dropTarget=0;pointerEvents=0;fillColor=none;top=0;left=0;bottom=0;right=0;points=[[0,0.5],[1,0.5]];portConstraint=eastwest;" vertex="1" parent="p-PvGO35hbSLgH3q7m_m-75">
          <mxGeometry y="60" width="180" height="30" as="geometry" />
        </mxCell>
        <mxCell id="p-PvGO35hbSLgH3q7m_m-80" value="STR" style="shape=partialRectangle;connectable=0;fillColor=none;top=0;left=0;bottom=0;right=0;editable=1;overflow=hidden;" vertex="1" parent="p-PvGO35hbSLgH3q7m_m-79">
          <mxGeometry width="30" height="30" as="geometry" />
        </mxCell>
        <mxCell id="p-PvGO35hbSLgH3q7m_m-81" value="Nome" style="shape=partialRectangle;connectable=0;fillColor=none;top=0;left=0;bottom=0;right=0;align=left;spacingLeft=6;overflow=hidden;" vertex="1" parent="p-PvGO35hbSLgH3q7m_m-79">
          <mxGeometry x="30" width="150" height="30" as="geometry" />
        </mxCell>
        <mxCell id="p-PvGO35hbSLgH3q7m_m-82" value="" style="edgeStyle=orthogonalEdgeStyle;rounded=0;orthogonalLoop=1;jettySize=auto;html=1;startArrow=ERone;startFill=0;endArrow=ERmany;endFill=0;" edge="1" parent="1" source="p-PvGO35hbSLgH3q7m_m-83" target="p-PvGO35hbSLgH3q7m_m-93">
          <mxGeometry relative="1" as="geometry" />
        </mxCell>
        <mxCell id="p-PvGO35hbSLgH3q7m_m-83" value="Segmento" style="shape=table;startSize=30;container=1;collapsible=1;childLayout=tableLayout;fixedRows=1;rowLines=0;fontStyle=1;align=center;resizeLast=1;" vertex="1" parent="1">
          <mxGeometry x="560" y="280" width="200" height="130" as="geometry" />
        </mxCell>
        <mxCell id="p-PvGO35hbSLgH3q7m_m-84" value="" style="shape=partialRectangle;collapsible=0;dropTarget=0;pointerEvents=0;fillColor=none;top=0;left=0;bottom=0;right=0;points=[[0,0.5],[1,0.5]];portConstraint=eastwest;" vertex="1" parent="p-PvGO35hbSLgH3q7m_m-83">
          <mxGeometry y="30" width="200" height="30" as="geometry" />
        </mxCell>
        <mxCell id="p-PvGO35hbSLgH3q7m_m-85" value="PK" style="shape=partialRectangle;connectable=0;fillColor=none;top=0;left=0;bottom=0;right=0;fontStyle=1;overflow=hidden;" vertex="1" parent="p-PvGO35hbSLgH3q7m_m-84">
          <mxGeometry width="60" height="30" as="geometry" />
        </mxCell>
        <mxCell id="p-PvGO35hbSLgH3q7m_m-86" value="ID" style="shape=partialRectangle;connectable=0;fillColor=none;top=0;left=0;bottom=0;right=0;align=left;spacingLeft=6;fontStyle=5;overflow=hidden;" vertex="1" parent="p-PvGO35hbSLgH3q7m_m-84">
          <mxGeometry x="60" width="140" height="30" as="geometry" />
        </mxCell>
        <mxCell id="p-PvGO35hbSLgH3q7m_m-87" value="" style="shape=partialRectangle;collapsible=0;dropTarget=0;pointerEvents=0;fillColor=none;top=0;left=0;bottom=1;right=0;points=[[0,0.5],[1,0.5]];portConstraint=eastwest;" vertex="1" parent="p-PvGO35hbSLgH3q7m_m-83">
          <mxGeometry y="60" width="200" height="30" as="geometry" />
        </mxCell>
        <mxCell id="p-PvGO35hbSLgH3q7m_m-88" value="FK" style="shape=partialRectangle;connectable=0;fillColor=none;top=0;left=0;bottom=0;right=0;fontStyle=1;overflow=hidden;" vertex="1" parent="p-PvGO35hbSLgH3q7m_m-87">
          <mxGeometry width="60" height="30" as="geometry" />
        </mxCell>
        <mxCell id="p-PvGO35hbSLgH3q7m_m-89" value="ID_Setor" style="shape=partialRectangle;connectable=0;fillColor=none;top=0;left=0;bottom=0;right=0;align=left;spacingLeft=6;fontStyle=1;overflow=hidden;" vertex="1" parent="p-PvGO35hbSLgH3q7m_m-87">
          <mxGeometry x="60" width="140" height="30" as="geometry" />
        </mxCell>
        <mxCell id="p-PvGO35hbSLgH3q7m_m-90" value="" style="shape=partialRectangle;collapsible=0;dropTarget=0;pointerEvents=0;fillColor=none;top=0;left=0;bottom=0;right=0;points=[[0,0.5],[1,0.5]];portConstraint=eastwest;" vertex="1" parent="p-PvGO35hbSLgH3q7m_m-83">
          <mxGeometry y="90" width="200" height="30" as="geometry" />
        </mxCell>
        <mxCell id="p-PvGO35hbSLgH3q7m_m-91" value="STR " style="shape=partialRectangle;connectable=0;fillColor=none;top=0;left=0;bottom=0;right=0;editable=1;overflow=hidden;" vertex="1" parent="p-PvGO35hbSLgH3q7m_m-90">
          <mxGeometry width="60" height="30" as="geometry" />
        </mxCell>
        <mxCell id="p-PvGO35hbSLgH3q7m_m-92" value="Nome" style="shape=partialRectangle;connectable=0;fillColor=none;top=0;left=0;bottom=0;right=0;align=left;spacingLeft=6;overflow=hidden;" vertex="1" parent="p-PvGO35hbSLgH3q7m_m-90">
          <mxGeometry x="60" width="140" height="30" as="geometry" />
        </mxCell>
        <mxCell id="p-PvGO35hbSLgH3q7m_m-93" value="Setor" style="shape=table;startSize=30;container=1;collapsible=1;childLayout=tableLayout;fixedRows=1;rowLines=0;fontStyle=1;align=center;resizeLast=1;" vertex="1" parent="1">
          <mxGeometry x="560" y="480" width="200" height="100" as="geometry" />
        </mxCell>
        <mxCell id="p-PvGO35hbSLgH3q7m_m-94" value="" style="shape=partialRectangle;collapsible=0;dropTarget=0;pointerEvents=0;fillColor=none;top=0;left=0;bottom=1;right=0;points=[[0,0.5],[1,0.5]];portConstraint=eastwest;" vertex="1" parent="p-PvGO35hbSLgH3q7m_m-93">
          <mxGeometry y="30" width="200" height="30" as="geometry" />
        </mxCell>
        <mxCell id="p-PvGO35hbSLgH3q7m_m-95" value="PK" style="shape=partialRectangle;connectable=0;fillColor=none;top=0;left=0;bottom=0;right=0;fontStyle=1;overflow=hidden;" vertex="1" parent="p-PvGO35hbSLgH3q7m_m-94">
          <mxGeometry width="60" height="30" as="geometry" />
        </mxCell>
        <mxCell id="p-PvGO35hbSLgH3q7m_m-96" value="ID" style="shape=partialRectangle;connectable=0;fillColor=none;top=0;left=0;bottom=0;right=0;align=left;spacingLeft=6;fontStyle=1;overflow=hidden;" vertex="1" parent="p-PvGO35hbSLgH3q7m_m-94">
          <mxGeometry x="60" width="140" height="30" as="geometry" />
        </mxCell>
        <mxCell id="p-PvGO35hbSLgH3q7m_m-97" value="" style="shape=partialRectangle;collapsible=0;dropTarget=0;pointerEvents=0;fillColor=none;top=0;left=0;bottom=0;right=0;points=[[0,0.5],[1,0.5]];portConstraint=eastwest;" vertex="1" parent="p-PvGO35hbSLgH3q7m_m-93">
          <mxGeometry y="60" width="200" height="30" as="geometry" />
        </mxCell>
        <mxCell id="p-PvGO35hbSLgH3q7m_m-98" value="STR " style="shape=partialRectangle;connectable=0;fillColor=none;top=0;left=0;bottom=0;right=0;editable=1;overflow=hidden;" vertex="1" parent="p-PvGO35hbSLgH3q7m_m-97">
          <mxGeometry width="60" height="30" as="geometry" />
        </mxCell>
        <mxCell id="p-PvGO35hbSLgH3q7m_m-99" value="Nome" style="shape=partialRectangle;connectable=0;fillColor=none;top=0;left=0;bottom=0;right=0;align=left;spacingLeft=6;overflow=hidden;" vertex="1" parent="p-PvGO35hbSLgH3q7m_m-97">
          <mxGeometry x="60" width="140" height="30" as="geometry" />
        </mxCell>
      </root>
    </mxGraphModel>
  </diagram>
</mxfile>
